<mxfile host="app.diagrams.net" modified="2021-08-16T11:57:53.976Z" agent="5.0 (Windows NT 10.0; Win64; x64) AppleWebKit/537.36 (KHTML, like Gecko) Chrome/92.0.4515.131 Safari/537.36" etag="0rApioWmGqAheKnuSMDI" version="14.9.5" type="github">
  <diagram id="7iNuk3zLuDLKiAJlWhuA" name="Page-1">
    <mxGraphModel dx="981" dy="526" grid="1" gridSize="10" guides="1" tooltips="1" connect="1" arrows="1" fold="1" page="1" pageScale="1" pageWidth="827" pageHeight="1169" math="0" shadow="0">
      <root>
        <mxCell id="0" />
        <mxCell id="1" parent="0" />
        <mxCell id="qTpSMrWYJT7CmjRMF8rL-1" value="" style="endArrow=none;dashed=1;html=1;strokeWidth=6;fillColor=#d5e8d4;strokeColor=#82b366;dashPattern=1 1;" parent="1" edge="1">
          <mxGeometry width="50" height="50" relative="1" as="geometry">
            <mxPoint x="223" y="241" as="sourcePoint" />
            <mxPoint x="646" y="241" as="targetPoint" />
          </mxGeometry>
        </mxCell>
        <mxCell id="qTpSMrWYJT7CmjRMF8rL-2" value="&lt;font style=&quot;font-size: 16px&quot; color=&quot;#009900&quot;&gt;&lt;b&gt;乐高平台改造&lt;/b&gt;&lt;/font&gt;" style="edgeLabel;html=1;align=center;verticalAlign=middle;resizable=0;points=[];" parent="qTpSMrWYJT7CmjRMF8rL-1" vertex="1" connectable="0">
          <mxGeometry x="-0.0273" y="1" relative="1" as="geometry">
            <mxPoint as="offset" />
          </mxGeometry>
        </mxCell>
        <mxCell id="qTpSMrWYJT7CmjRMF8rL-3" value="&lt;font style=&quot;font-size: 15px&quot; color=&quot;#7ea6e0&quot;&gt;&lt;b&gt;ceiba2.0改版&lt;/b&gt;&lt;/font&gt;" style="endArrow=none;html=1;strokeWidth=6;fillColor=#dae8fc;strokeColor=#6c8ebf;" parent="1" edge="1">
          <mxGeometry width="50" height="50" relative="1" as="geometry">
            <mxPoint x="68" y="291" as="sourcePoint" />
            <mxPoint x="200" y="291" as="targetPoint" />
          </mxGeometry>
        </mxCell>
        <mxCell id="qTpSMrWYJT7CmjRMF8rL-4" value="&lt;font style=&quot;font-size: 16px&quot; color=&quot;#b5739d&quot;&gt;&lt;b&gt;任务中心&lt;/b&gt;&lt;/font&gt;" style="endArrow=none;html=1;strokeWidth=6;fillColor=#e1d5e7;strokeColor=#9673a6;" parent="1" edge="1">
          <mxGeometry width="50" height="50" relative="1" as="geometry">
            <mxPoint x="110" y="337" as="sourcePoint" />
            <mxPoint x="360" y="336" as="targetPoint" />
          </mxGeometry>
        </mxCell>
        <mxCell id="qTpSMrWYJT7CmjRMF8rL-5" value="&lt;font style=&quot;font-size: 16px&quot; color=&quot;#cc0000&quot;&gt;&lt;b&gt;Faas函数网格平台&lt;/b&gt;&lt;/font&gt;" style="endArrow=none;html=1;strokeWidth=6;fillColor=#f8cecc;strokeColor=#b85450;" parent="1" edge="1">
          <mxGeometry width="50" height="50" relative="1" as="geometry">
            <mxPoint x="320" y="382" as="sourcePoint" />
            <mxPoint x="730" y="382" as="targetPoint" />
          </mxGeometry>
        </mxCell>
        <mxCell id="qTpSMrWYJT7CmjRMF8rL-6" value="&lt;font style=&quot;font-size: 14px&quot;&gt;模板推送&lt;/font&gt;" style="endArrow=none;html=1;strokeWidth=4;fillColor=#e1d5e7;strokeColor=#9673a6;" parent="1" edge="1">
          <mxGeometry x="528" y="337" width="50" height="50" as="geometry">
            <mxPoint x="513" y="337" as="sourcePoint" />
            <mxPoint x="608" y="337" as="targetPoint" />
            <Array as="points">
              <mxPoint x="575" y="337" />
              <mxPoint x="588" y="337" />
            </Array>
          </mxGeometry>
        </mxCell>
        <mxCell id="qTpSMrWYJT7CmjRMF8rL-7" value="&lt;font style=&quot;font-size: 14px&quot;&gt;定时任务平台&lt;/font&gt;" style="endArrow=none;html=1;strokeWidth=4;fillColor=#ffe6cc;strokeColor=#d79b00;" parent="1" edge="1">
          <mxGeometry x="389" y="416" width="50" height="50" as="geometry">
            <mxPoint x="469" y="416" as="sourcePoint" />
            <mxPoint x="579" y="416" as="targetPoint" />
          </mxGeometry>
        </mxCell>
        <mxCell id="qTpSMrWYJT7CmjRMF8rL-8" value="&lt;font style=&quot;font-size: 14px&quot;&gt;资源管理&lt;/font&gt;" style="endArrow=none;html=1;strokeWidth=4;fillColor=#e1d5e7;strokeColor=#9673a6;" parent="1" edge="1">
          <mxGeometry x="412" y="336" width="50" height="50" as="geometry">
            <mxPoint x="622" y="336" as="sourcePoint" />
            <mxPoint x="770" y="336" as="targetPoint" />
            <Array as="points">
              <mxPoint x="685" y="336" />
            </Array>
          </mxGeometry>
        </mxCell>
        <mxCell id="qTpSMrWYJT7CmjRMF8rL-10" value="&lt;font style=&quot;font-size: 14px&quot;&gt;ceiba平台更新迭代&lt;/font&gt;" style="endArrow=none;html=1;strokeWidth=4;dashed=1;fillColor=#dae8fc;strokeColor=#6c8ebf;dashPattern=1 1;" parent="1" edge="1">
          <mxGeometry width="50" height="50" relative="1" as="geometry">
            <mxPoint x="216" y="291" as="sourcePoint" />
            <mxPoint x="773" y="291" as="targetPoint" />
          </mxGeometry>
        </mxCell>
        <mxCell id="qTpSMrWYJT7CmjRMF8rL-11" value="" style="endArrow=none;dashed=1;html=1;dashPattern=1 1;strokeWidth=2;strokeColor=#999999;" parent="1" edge="1">
          <mxGeometry width="50" height="50" relative="1" as="geometry">
            <mxPoint x="190" y="230" as="sourcePoint" />
            <mxPoint x="190" y="200" as="targetPoint" />
          </mxGeometry>
        </mxCell>
        <mxCell id="qTpSMrWYJT7CmjRMF8rL-12" value="2月" style="text;html=1;align=center;verticalAlign=middle;resizable=0;points=[];autosize=1;strokeColor=none;" parent="1" vertex="1">
          <mxGeometry x="175" y="190" width="30" height="20" as="geometry" />
        </mxCell>
        <mxCell id="qTpSMrWYJT7CmjRMF8rL-13" value="" style="endArrow=none;dashed=1;html=1;dashPattern=1 1;strokeWidth=2;strokeColor=#999999;" parent="1" edge="1">
          <mxGeometry width="50" height="50" relative="1" as="geometry">
            <mxPoint x="305" y="230" as="sourcePoint" />
            <mxPoint x="305" y="200" as="targetPoint" />
          </mxGeometry>
        </mxCell>
        <mxCell id="qTpSMrWYJT7CmjRMF8rL-14" value="3月" style="text;html=1;align=center;verticalAlign=middle;resizable=0;points=[];autosize=1;strokeColor=none;" parent="1" vertex="1">
          <mxGeometry x="290" y="190" width="30" height="20" as="geometry" />
        </mxCell>
        <mxCell id="qTpSMrWYJT7CmjRMF8rL-15" value="" style="endArrow=none;dashed=1;html=1;dashPattern=1 1;strokeWidth=2;strokeColor=#999999;" parent="1" edge="1">
          <mxGeometry width="50" height="50" relative="1" as="geometry">
            <mxPoint x="675" y="230" as="sourcePoint" />
            <mxPoint x="675" y="200" as="targetPoint" />
          </mxGeometry>
        </mxCell>
        <mxCell id="qTpSMrWYJT7CmjRMF8rL-16" value="6月" style="text;html=1;align=center;verticalAlign=middle;resizable=0;points=[];autosize=1;strokeColor=none;" parent="1" vertex="1">
          <mxGeometry x="660" y="190" width="30" height="20" as="geometry" />
        </mxCell>
        <mxCell id="qTpSMrWYJT7CmjRMF8rL-18" value="4月" style="text;html=1;align=center;verticalAlign=middle;resizable=0;points=[];autosize=1;strokeColor=none;" parent="1" vertex="1">
          <mxGeometry x="405" y="190" width="30" height="20" as="geometry" />
        </mxCell>
        <mxCell id="qTpSMrWYJT7CmjRMF8rL-19" value="" style="endArrow=none;dashed=1;html=1;dashPattern=1 1;strokeWidth=2;strokeColor=#999999;" parent="1" edge="1">
          <mxGeometry width="50" height="50" relative="1" as="geometry">
            <mxPoint x="551" y="230" as="sourcePoint" />
            <mxPoint x="551" y="200" as="targetPoint" />
          </mxGeometry>
        </mxCell>
        <mxCell id="qTpSMrWYJT7CmjRMF8rL-20" value="5月" style="text;html=1;align=center;verticalAlign=middle;resizable=0;points=[];autosize=1;strokeColor=none;" parent="1" vertex="1">
          <mxGeometry x="536" y="190" width="30" height="20" as="geometry" />
        </mxCell>
        <mxCell id="qTpSMrWYJT7CmjRMF8rL-21" value="" style="endArrow=none;dashed=1;html=1;dashPattern=1 1;strokeWidth=2;strokeColor=#999999;" parent="1" edge="1">
          <mxGeometry width="50" height="50" relative="1" as="geometry">
            <mxPoint x="65" y="420" as="sourcePoint" />
            <mxPoint x="65" y="200" as="targetPoint" />
          </mxGeometry>
        </mxCell>
        <mxCell id="qTpSMrWYJT7CmjRMF8rL-22" value="1月" style="text;html=1;align=center;verticalAlign=middle;resizable=0;points=[];autosize=1;strokeColor=none;" parent="1" vertex="1">
          <mxGeometry x="50" y="190" width="30" height="20" as="geometry" />
        </mxCell>
        <mxCell id="qTpSMrWYJT7CmjRMF8rL-23" value="" style="endArrow=none;dashed=1;html=1;dashPattern=1 1;strokeWidth=2;strokeColor=#999999;" parent="1" edge="1">
          <mxGeometry width="50" height="50" relative="1" as="geometry">
            <mxPoint x="785" y="430" as="sourcePoint" />
            <mxPoint x="785" y="200" as="targetPoint" />
          </mxGeometry>
        </mxCell>
        <mxCell id="qTpSMrWYJT7CmjRMF8rL-24" value="7月" style="text;html=1;align=center;verticalAlign=middle;resizable=0;points=[];autosize=1;strokeColor=none;" parent="1" vertex="1">
          <mxGeometry x="770" y="190" width="30" height="20" as="geometry" />
        </mxCell>
        <mxCell id="qTpSMrWYJT7CmjRMF8rL-36" value="&lt;font style=&quot;font-size: 13px&quot;&gt;权益卡流水消费&lt;/font&gt;" style="endArrow=none;html=1;strokeWidth=4;fillColor=#e1d5e7;strokeColor=#9673a6;" parent="1" edge="1">
          <mxGeometry x="-103" y="-1" width="50" height="50" as="geometry">
            <mxPoint x="377" y="337" as="sourcePoint" />
            <mxPoint x="499" y="337" as="targetPoint" />
            <Array as="points">
              <mxPoint x="437" y="337" />
              <mxPoint x="466" y="337" />
              <mxPoint x="479" y="337" />
            </Array>
            <mxPoint x="-1" as="offset" />
          </mxGeometry>
        </mxCell>
        <mxCell id="4bq8MLKAjk0pvtJ4OZty-1" value="&lt;span style=&quot;font-size: 14px&quot;&gt;管理端配置开发&lt;/span&gt;" style="endArrow=none;html=1;strokeWidth=5;fillColor=#d5e8d4;strokeColor=#82b366;" parent="1" edge="1">
          <mxGeometry x="591" y="241" width="50" height="50" as="geometry">
            <mxPoint x="655" y="241" as="sourcePoint" />
            <mxPoint x="781" y="241" as="targetPoint" />
          </mxGeometry>
        </mxCell>
        <mxCell id="9Wdxen11sy2mu1FWjZvd-1" value="" style="endArrow=none;html=1;strokeWidth=11;fillColor=#f8cecc;strokeColor=#b85450;fontSize=17;" edge="1" parent="1">
          <mxGeometry width="50" height="50" relative="1" as="geometry">
            <mxPoint x="110" y="600" as="sourcePoint" />
            <mxPoint x="860" y="600" as="targetPoint" />
          </mxGeometry>
        </mxCell>
        <mxCell id="9Wdxen11sy2mu1FWjZvd-2" value="" style="endArrow=none;dashed=1;html=1;dashPattern=1 1;strokeWidth=2;strokeColor=#999999;" edge="1" parent="1" target="9Wdxen11sy2mu1FWjZvd-3">
          <mxGeometry width="50" height="50" relative="1" as="geometry">
            <mxPoint x="230" y="590" as="sourcePoint" />
            <mxPoint x="229.75" y="550" as="targetPoint" />
          </mxGeometry>
        </mxCell>
        <mxCell id="9Wdxen11sy2mu1FWjZvd-3" value="8月底" style="text;html=1;align=center;verticalAlign=middle;resizable=0;points=[];autosize=1;strokeColor=none;fontStyle=1;fontSize=14;" vertex="1" parent="1">
          <mxGeometry x="206" y="517" width="50" height="20" as="geometry" />
        </mxCell>
        <mxCell id="9Wdxen11sy2mu1FWjZvd-7" value="9月中" style="text;html=1;align=center;verticalAlign=middle;resizable=0;points=[];autosize=1;strokeColor=none;" vertex="1" parent="1">
          <mxGeometry x="356" y="642" width="50" height="20" as="geometry" />
        </mxCell>
        <mxCell id="9Wdxen11sy2mu1FWjZvd-8" value="" style="endArrow=none;dashed=1;html=1;dashPattern=1 1;strokeWidth=2;strokeColor=#999999;" edge="1" parent="1" source="9Wdxen11sy2mu1FWjZvd-7">
          <mxGeometry width="50" height="50" relative="1" as="geometry">
            <mxPoint x="381.08" y="624" as="sourcePoint" />
            <mxPoint x="380" y="604" as="targetPoint" />
          </mxGeometry>
        </mxCell>
        <mxCell id="9Wdxen11sy2mu1FWjZvd-9" value="&lt;font size=&quot;1&quot;&gt;&lt;b style=&quot;font-size: 20px&quot;&gt;平台对外&lt;/b&gt;&lt;/font&gt;&lt;br&gt;活动编辑发布主逻辑+大部分重构组件" style="text;html=1;strokeColor=none;fillColor=none;align=center;verticalAlign=middle;whiteSpace=wrap;rounded=0;" vertex="1" parent="1">
          <mxGeometry x="159.38" y="610" width="141.25" height="70" as="geometry" />
        </mxCell>
        <mxCell id="9Wdxen11sy2mu1FWjZvd-11" value="&lt;b&gt;&lt;font style=&quot;font-size: 15px&quot;&gt;配置功能完善&lt;/font&gt;&lt;/b&gt;&lt;br&gt;组件迁移100%+ 组件管理+ 流程配置交互完善" style="text;html=1;strokeColor=none;fillColor=none;align=center;verticalAlign=middle;whiteSpace=wrap;rounded=0;" vertex="1" parent="1">
          <mxGeometry x="316" y="529" width="130" height="73" as="geometry" />
        </mxCell>
        <mxCell id="9Wdxen11sy2mu1FWjZvd-12" value="" style="endArrow=none;dashed=1;html=1;dashPattern=1 1;strokeWidth=2;strokeColor=#999999;" edge="1" parent="1" target="9Wdxen11sy2mu1FWjZvd-13">
          <mxGeometry width="50" height="50" relative="1" as="geometry">
            <mxPoint x="549" y="590" as="sourcePoint" />
            <mxPoint x="548.37" y="544" as="targetPoint" />
          </mxGeometry>
        </mxCell>
        <mxCell id="9Wdxen11sy2mu1FWjZvd-13" value="9月底" style="text;html=1;align=center;verticalAlign=middle;resizable=0;points=[];autosize=1;strokeColor=none;fontStyle=1;fontSize=14;" vertex="1" parent="1">
          <mxGeometry x="524.62" y="511" width="50" height="20" as="geometry" />
        </mxCell>
        <mxCell id="9Wdxen11sy2mu1FWjZvd-14" value="&lt;span style=&quot;font-size: 20px&quot;&gt;&lt;b&gt;能力集成迁移&lt;/b&gt;&lt;/span&gt;&lt;br&gt;权限管理，资源管理，游戏中心，任务中心，函数网格，&lt;br&gt;文件管理，效果分析..." style="text;html=1;strokeColor=none;fillColor=none;align=center;verticalAlign=middle;whiteSpace=wrap;rounded=0;" vertex="1" parent="1">
          <mxGeometry x="465.5" y="602" width="171.01" height="100" as="geometry" />
        </mxCell>
        <mxCell id="9Wdxen11sy2mu1FWjZvd-18" value="持续迭代..." style="text;html=1;strokeColor=none;fillColor=none;align=center;verticalAlign=middle;whiteSpace=wrap;rounded=0;" vertex="1" parent="1">
          <mxGeometry x="700" y="602" width="120" height="40" as="geometry" />
        </mxCell>
      </root>
    </mxGraphModel>
  </diagram>
</mxfile>
